HIERARCHY
ROOT Hips
{
  OFFSET 5.04731 94.866 -7.60916
  CHANNELS 6 Xposition Yposition Zposition Zrotation Xrotation Yrotation
  JOINT Spine
  {
    OFFSET 0 15.3684 -2.40487
    CHANNELS 6 Xposition Yposition Zposition Zrotation Xrotation Yrotation
    JOINT Spine1
    {
      OFFSET 0 9.79164 0
      CHANNELS 6 Xposition Yposition Zposition Zrotation Xrotation Yrotation
      JOINT Spine2
      {
        OFFSET 0 9.79164 0
        CHANNELS 6 Xposition Yposition Zposition Zrotation Xrotation Yrotation
        JOINT Spine3
        {
          OFFSET 0 9.79164 0
          CHANNELS 6 Xposition Yposition Zposition Zrotation Xrotation Yrotation
          JOINT Neck
          {
            OFFSET 0 12.5893 1.25893
            CHANNELS 6 Xposition Yposition Zposition Zrotation Xrotation Yrotation
            JOINT Neck1
            {
              OFFSET 0 4.095 0
              CHANNELS 6 Xposition Yposition Zposition Zrotation Xrotation Yrotation
              JOINT Head
              {
                OFFSET 0 4.095 0
                CHANNELS 6 Xposition Yposition Zposition Zrotation Xrotation Yrotation
                End Site
                {
                  OFFSET 0 9.72808 0
                }
              }
            }
          }
          JOINT RightShoulder
          {
            OFFSET 0 8.99232 5.27092
            CHANNELS 6 Xposition Yposition Zposition Zrotation Xrotation Yrotation
            JOINT RightArm
            {
              OFFSET 0 21.4762 0
              CHANNELS 6 Xposition Yposition Zposition Zrotation Xrotation Yrotation
              JOINT RightForeArm
              {
                OFFSET 0 30.4806 0
                CHANNELS 6 Xposition Yposition Zposition Zrotation Xrotation Yrotation
                JOINT RightHand
                {
                  OFFSET 0 25.7941 0
                  CHANNELS 6 Xposition Yposition Zposition Zrotation Xrotation Yrotation
                  JOINT RightHandThumb1
                  {
                    OFFSET -3.10387 3.51294 2.61218
                    CHANNELS 6 Xposition Yposition Zposition Zrotation Xrotation Yrotation
                    End Site
                    {
                      OFFSET 0 0 0
                    }
                  }
                  JOINT RightHandMiddle1
                  {
                    OFFSET 0 9.36783 -0.0600502
                    CHANNELS 6 Xposition Yposition Zposition Zrotation Xrotation Yrotation
                    End Site
                    {
                      OFFSET 0 0 0
                    }
                  }
                }
              }
            }
          }
          JOINT LeftShoulder
          {
            OFFSET 0 8.99232 5.27092
            CHANNELS 6 Xposition Yposition Zposition Zrotation Xrotation Yrotation
            JOINT LeftArm
            {
              OFFSET 0 21.4762 0
              CHANNELS 6 Xposition Yposition Zposition Zrotation Xrotation Yrotation
              JOINT LeftForeArm
              {
                OFFSET 0 30.4806 0
                CHANNELS 6 Xposition Yposition Zposition Zrotation Xrotation Yrotation
                JOINT LeftHand
                {
                  OFFSET 0 25.7941 0
                  CHANNELS 6 Xposition Yposition Zposition Zrotation Xrotation Yrotation
                  JOINT LeftHandThumb1
                  {
                    OFFSET 3.10387 3.51294 2.61218
                    CHANNELS 6 Xposition Yposition Zposition Zrotation Xrotation Yrotation
                    End Site
                    {
                      OFFSET 0 0 0
                    }
                  }
                  JOINT LeftHandMiddle1
                  {
                    OFFSET 0 9.36783 -0.0600502
                    CHANNELS 6 Xposition Yposition Zposition Zrotation Xrotation Yrotation
                    End Site
                    {
                      OFFSET 0 0 0
                    }
                  }
                }
              }
            }
          }
        }
      }
    }
  }
  JOINT RightUpLeg
  {
    OFFSET -10.4733 0 0
    CHANNELS 6 Xposition Yposition Zposition Zrotation Xrotation Yrotation
    JOINT RightLeg
    {
      OFFSET 0 -45.8208 0
      CHANNELS 6 Xposition Yposition Zposition Zrotation Xrotation Yrotation
      JOINT RightFoot
      {
        OFFSET 0 -45.0804 0
        CHANNELS 6 Xposition Yposition Zposition Zrotation Xrotation Yrotation
        JOINT RightForeFoot
        {
          OFFSET 0 -4.41419 0
          CHANNELS 6 Xposition Yposition Zposition Zrotation Xrotation Yrotation
          JOINT RightToeBase
          {
            OFFSET 0 0 17.2874
            CHANNELS 6 Xposition Yposition Zposition Zrotation Xrotation Yrotation
            End Site
            {
              OFFSET 0 0 5.58569
            }
          }
        }
      }
    }
  }
  JOINT LeftUpLeg
  {
    OFFSET 10.4733 0 0
    CHANNELS 6 Xposition Yposition Zposition Zrotation Xrotation Yrotation
    JOINT LeftLeg
    {
      OFFSET 0 -45.8208 0
      CHANNELS 6 Xposition Yposition Zposition Zrotation Xrotation Yrotation
      JOINT LeftFoot
      {
        OFFSET 0 -45.0804 0
        CHANNELS 6 Xposition Yposition Zposition Zrotation Xrotation Yrotation
        JOINT LeftForeFoot
        {
          OFFSET 0 -4.41419 0
          CHANNELS 6 Xposition Yposition Zposition Zrotation Xrotation Yrotation
          JOINT LeftToeBase
          {
            OFFSET 0 0 17.2874
            CHANNELS 6 Xposition Yposition Zposition Zrotation Xrotation Yrotation
            End Site
            {
              OFFSET 0 0 4.94953
            }
          }
        }
      }
    }
  }
}
MOTION
Frames:	4
Frame Time:	0.00833333
5.40633 94.8401 -7.46646 7.39262 -14.5364 -0.515869 -3.55271e-015 15.3684 -2.40487 -6.99481 9.50262 0.303771 0 9.79164 1.77636e-015 -2.28569 7.68049 0.877052 3.33067e-016 9.79164 0 -2.20604 3.64938 1.55501 8.88178e-016 9.79164 0 0.595259 -0.219584 0.313924 -1.33227e-015 12.5893 1.25893 -2.23918 2.04597 -1.10088 0 4.095 0 1.40833 -1.12706 -1.07673 0 4.095 -3.55271e-015 1.29381 -12.7026 0.0694254 4.44089e-016 8.99232 5.27092 94.6219 -18.4816 1.46773 -2.84217e-014 21.4762 -3.55271e-015 85.2652 38.2813 -56.5961 0 30.4806 5.32907e-015 -179.653 83.4231 144.399 1.42109e-014 25.7941 0 -32.6361 -0.593956 0.00437914 -3.10387 3.51294 2.61218 -6.37581e-015 45.2637 2.25941e-015 0 9.36783 -0.0600502 -3.18055e-015 0 4.77083e-015 4.44089e-016 8.99232 5.27092 -90.94 -14.8584 -0.241021 2.84217e-014 21.4762 0 -96.3561 38.2973 52.4788 -1.42109e-014 30.4806 0 0.134761 84.2468 -65.0827 1.42109e-014 25.7941 0 26.1565 -18.3421 -0.00256921 3.10387 3.51294 2.61218 1.51591e-014 45.2637 -7.90795e-015 1.42109e-014 9.36783 -0.0600502 4.77083e-015 6.36111e-015 1.59028e-015 -10.4733 0 -3.55271e-015 -15.4633 18.3569 -3.38529 0 -45.8208 1.77636e-015 2.50195e-015 10.0218 1.61492e-015 0 -45.0804 0 12.0398 -19.6519 -4.39213 0 -4.41419 -3.55271e-015 3.97569e-016 -7.95139e-016 -1.59028e-015 3.55271e-015 0 17.2874 -4.40105e-016 -1.53215 -1.59085e-015 10.4733 0 0 -7.4347 18.5678 15.8948 0 -45.8208 0 1.98785e-016 3.6365 -0 0 -45.0804 0 4.96388 -13.1404 8.07542 0 -4.41419 0 -1.78906e-015 7.95139e-016 -3.18055e-015 0 -5.55112e-017 17.2874 -3.97569e-016 6.45505 -0 
5.40404 94.8418 -7.46831 7.39276 -14.5533 -0.499354 -3.55271e-015 15.3684 -2.40487 -6.99782 9.50547 0.303991 0 9.79164 0 -2.28635 7.6836 0.876398 2.22045e-016 9.79164 0 -2.21736 3.63881 1.51909 -8.88178e-016 9.79164 3.55271e-015 0.590909 -0.219656 0.303986 1.33227e-015 12.5893 1.25893 -2.24561 2.07391 -1.10895 3.55271e-015 4.095 0 1.4172 -1.13895 -1.01819 -2.66454e-015 4.095 0 1.29834 -12.7178 0.073728 1.33227e-015 8.99232 5.27092 94.5055 -18.5557 1.43621 0 21.4762 0 85.4588 38.4595 -58.6089 0 30.4806 -1.77636e-015 -179.638 85.2751 144.999 0 25.7941 -1.42109e-014 -30.7551 -0.527217 0.00328343 -3.10387 3.51294 2.61218 -1.45794e-015 45.2637 -2.03347e-014 1.42109e-014 9.36783 -0.0600502 -1.59028e-015 -3.18055e-015 -3.18055e-015 1.33227e-015 8.99232 5.27092 -90.998 -14.8269 -0.255383 0 21.4762 0 -96.6259 38.6855 52.9667 -7.10543e-015 30.4806 7.10543e-015 0.123503 85.2954 -64.7025 -1.42109e-014 25.7941 0 25.843 -18.1194 -0.00192442 3.10387 3.51294 2.61218 -1.04177e-014 45.2637 1.24268e-014 -1.42109e-014 9.36783 -0.0600502 -8.82781e-031 6.36111e-015 7.95139e-015 -10.4733 1.42109e-014 7.10543e-015 -15.4584 18.3793 -3.39998 0 -45.8208 0 1.90559e-015 10.0222 1.61492e-015 0 -45.0804 0 12.0375 -19.6486 -4.38947 -3.55271e-015 -4.41419 3.55271e-015 -9.93923e-016 -7.95139e-016 -4.77083e-015 3.55271e-015 0 17.2874 -1.07923e-015 -1.53647 -3.1817e-015 10.4733 0 0 -7.43082 18.5926 15.89 0 -45.8208 0 2.99408e-016 3.62053 -1.59346e-015 0 -45.0804 1.77636e-015 4.95998 -13.1331 8.06688 3.55271e-015 -4.41419 0 -1.19271e-015 -7.95139e-016 -3.18055e-015 0 0 17.2874 -8.3275e-016 6.45694 -3.20086e-015 
5.399 94.8411 -7.46241 7.39291 -14.5702 -0.482839 -3.55271e-015 15.3684 -2.40487 -7.00082 9.50832 0.304211 0 9.79164 -1.77636e-015 -2.28701 7.6867 0.875744 -1.66533e-016 9.79164 0 -2.22869 3.62826 1.48317 0 9.79164 0 0.586559 -0.219726 0.294048 4.44089e-016 12.5893 1.25893 -2.25204 2.10184 -1.11703 0 4.095 0 1.42608 -1.15083 -0.959647 0 4.095 -3.55271e-015 1.30288 -12.733 0.0780322 -4.44089e-016 8.99232 5.27092 94.3889 -18.6297 1.40452 0 21.4762 3.55271e-015 85.6606 38.6322 -60.6263 0 30.4806 1.77636e-015 -180 87.126 145.975 0 25.7941 7.10543e-015 -28.8751 -0.460586 -2.85544e-011 -3.10387 3.51294 2.61218 -8.03961e-015 45.2637 1.35565e-014 0 9.36783 -0.0600502 1.59028e-015 1.59028e-014 9.54166e-015 -4.44089e-016 8.99232 5.27092 -91.056 -14.7953 -0.26971 2.84217e-014 21.4762 -3.55271e-015 -96.9014 39.0719 53.4596 0 30.4806 0 -4.9023e-005 86.3438 -64.2103 7.10543e-015 25.7941 0 25.5299 -17.8967 -2.52353e-010 3.10387 3.51294 2.61218 -4.41122e-017 45.2637 6.77824e-015 -1.42109e-014 9.36783 -0.0600502 1.59028e-015 -6.36111e-015 6.36111e-015 -10.4733 -1.42109e-014 0 -15.4534 18.4018 -3.41467 0 -45.8208 -1.77636e-015 -6.30595e-016 10.0226 -3.22985e-015 3.55271e-015 -45.0804 3.55271e-015 12.0352 -19.6453 -4.38681 3.55271e-015 -4.41419 3.55271e-015 5.96354e-016 7.95139e-016 1.59028e-015 0 0 17.2874 6.81905e-016 -1.54079 3.18171e-015 10.4733 -1.42109e-014 0 -7.42694 18.6173 15.8852 -3.55271e-015 -45.8208 0 1.98785e-016 3.60455 -0 -3.55271e-015 -45.0804 -3.55271e-015 4.95608 -13.1257 8.05833 -3.55271e-015 -4.41419 0 -1.78906e-015 -7.95139e-016 -0 3.55271e-015 -2.22045e-016 17.2874 8.32644e-016 6.45884 3.20087e-015 
5.41959 94.8208 -7.50789 7.39211 -14.5918 -0.496883 3.55271e-015 15.3684 -2.40487 -7.01463 9.49556 0.306379 -8.88178e-016 9.79164 -1.77636e-015 -2.29085 7.6878 0.876753 3.33067e-016 9.79164 0 -2.24073 3.62311 1.46311 -8.88178e-016 9.79164 0 0.592753 -0.221292 0.291516 0 12.5893 1.25893 -2.21099 2.12349 -1.12323 0 4.095 0 1.42649 -1.1264 -0.915628 1.77636e-015 4.095 0 1.29928 -12.7192 0.081091 -8.88178e-016 8.99232 5.27092 94.4347 -18.5965 1.41676 2.84217e-014 21.4762 -3.55271e-015 85.8709 38.9728 -62.3959 0 30.4806 -5.32907e-015 -177.114 88.8189 144.428 1.42109e-014 25.7941 7.10543e-015 -34.423 0.764019 -0.179888 -3.10387 3.51294 2.61218 -7.9955e-015 45.2637 6.77824e-015 0 9.36783 -0.0600502 -9.54166e-015 -6.36111e-015 -1.59028e-015 -8.88178e-016 8.99232 5.27092 -90.9489 -14.7794 -0.242143 0 21.4762 3.55271e-015 -96.9805 39.2367 53.522 0 30.4806 -1.42109e-014 0.789024 86.7351 -60.6425 -7.10543e-015 25.7941 -2.84217e-014 26.8953 -19.1317 -0.0473111 3.10387 3.51294 2.61218 -1.4386e-014 45.2637 1.12971e-014 1.42109e-014 9.36783 -0.0600502 1.59028e-015 0 3.18055e-015 -10.4733 0 0 -15.4569 18.418 -3.40742 3.55271e-015 -45.8208 0 5.96354e-016 10.0199 -0 0 -45.0804 0 12.0286 -19.6475 -4.377 0 -4.41419 3.55271e-015 1.98785e-016 -7.95139e-016 -1.59028e-015 0 -4.44089e-016 17.2874 4.40133e-016 -1.53316 1.59085e-015 10.4733 -1.42109e-014 0 -7.4285 18.6371 15.9009 0 -45.8208 0 2.00436e-016 3.60597 -3.18686e-015 0 -45.0804 -1.77636e-015 4.95506 -13.1249 8.05821 0 -4.41419 0 9.93923e-016 0 -6.36111e-015 0 3.33067e-016 17.2874 1.98785e-015 6.45441 -0 
